<svg width="26" height="34" viewBox="0 0 26 34" fill="none" xmlns="http://www.w3.org/2000/svg">
<path d="M23.5299 15.4893C23.1028 14.9226 22.5829 14.4315 22.1001 13.9404C20.8561 12.807 19.4449 11.9948 18.2566 10.8048C15.4899 8.0469 14.8772 3.49454 16.6411 0C14.8772 0.434457 13.336 1.41671 12.0177 2.4934C7.20859 6.42241 5.31465 13.3548 7.57995 19.305C7.65422 19.4939 7.72849 19.6828 7.72849 19.9283C7.72849 20.3439 7.44997 20.7217 7.07861 20.8728C6.65154 21.0617 6.20591 20.9484 5.85312 20.6461C5.74774 20.5563 5.6596 20.4475 5.59317 20.325C3.49498 17.6238 3.16075 13.7515 4.57192 10.6536C1.47106 13.2226 -0.218626 17.5672 0.0227583 21.6662C0.134167 22.6106 0.245575 23.5551 0.561231 24.4996C0.821184 25.633 1.32252 26.7663 1.87956 27.7675C3.88491 31.0353 7.35713 33.3776 11.0893 33.8499C15.0629 34.3599 19.3149 33.6232 22.3601 30.8275C25.758 27.6919 26.9464 22.6673 25.201 18.3605L24.9596 17.8694C24.5697 17.0005 23.5299 15.4893 23.5299 15.4893ZM17.6624 27.3897C17.1425 27.843 16.2884 28.3341 15.6199 28.523C13.5403 29.2786 11.4607 28.2208 10.2352 26.9741C12.4448 26.4452 13.7631 24.7829 14.153 23.1018C14.4687 21.5906 13.8745 20.3439 13.6331 18.8894C13.4103 17.4916 13.4474 16.3016 13.9488 14.9982C14.3016 15.716 14.6729 16.4338 15.1186 17.0005C16.5483 18.8894 18.795 19.7206 19.2778 22.2895C19.3521 22.554 19.3892 22.8184 19.3892 23.1018C19.4449 24.6507 18.7765 26.3507 17.6624 27.3897Z" fill="#FFAE00"/>
</svg>
